<svg height="480pt" viewBox="-48 0 480 480.10467" width="480pt" xmlns="http://www.w3.org/2000/svg"><path d="m216.933594 100.609375c-.960938-.003906-1.910156-.175781-2.808594-.511719-14.230469-5.34375-29.914062-5.34375-44.144531 0-4.109375 1.433594-8.609375-.675781-10.132813-4.753906-1.523437-4.074219.492188-8.621094 4.53125-10.230469 17.851563-6.695312 37.527344-6.695312 55.378906 0 3.628907 1.351563 5.765626 5.109375 5.074219 8.921875-.6875 3.8125-4.011719 6.578125-7.882812 6.574219zm0 0" fill="#ffcc5c"/><path d="m239.882812 67.800781c-1.277343 0-2.535156-.308593-3.671874-.894531-27.691407-14.347656-60.625-14.347656-88.320313 0-2.542969 1.40625-5.65625 1.324219-8.121094-.222656-2.464843-1.546875-3.898437-4.308594-3.738281-7.214844.15625-2.90625 1.882812-5.496094 4.5-6.765625 32.308594-16.734375 70.734375-16.734375 103.042969 0 3.265625 1.703125 4.949219 5.417969 4.074219 8.996094s-4.078126 6.097656-7.765626 6.101562zm0 0" fill="#f7931e"/><path d="m262.363281 35.730469c-1.460937-.003907-2.894531-.402344-4.144531-1.160157-40.632812-24.769531-91.699219-24.769531-132.335938 0-3.757812 2.097657-8.503906.847657-10.738281-2.828124-2.234375-3.679688-1.160156-8.46875 2.4375-10.835938 45.734375-27.875 103.207031-27.875 148.941407 0 3.070312 1.859375 4.523437 5.539062 3.554687 8.996094-.96875 3.460937-4.125 5.847656-7.714844 5.84375zm0 0" fill="#f15a24"/><path d="m256.050781 184.105469c.023438 14.5625-4.976562 28.691406-14.160156 40h-99.679687c-9.179688-11.308594-14.179688-25.4375-14.160157-40 0-35.347657 28.65625-64 64-64 35.347657 0 64 28.652343 64 64zm0 0" fill="#2980b9"/><path d="m288.050781 232.105469v120c-.003906 1.765625-.59375 3.484375-1.679687 4.878906-.304688.410156-.652344.785156-1.039063 1.121094-.238281.238281-.558593.398437-.800781.640625l-55.277344 47.4375c-1.457031 1.226562-3.296875 1.90625-5.203125 1.921875h-64c-1.902343-.015625-3.742187-.695313-5.199219-1.921875l-55.277343-47.4375c-.242188-.242188-.5625-.402344-.800781-.640625-.386719-.335938-.738282-.710938-1.042969-1.121094-1.082031-1.394531-1.671875-3.113281-1.679688-4.878906v-120c0-4.417969 3.582031-8 8-8h176c4.417969 0 8 3.582031 8 8zm0 0" fill="#2980b9"/><path d="m256.050781 448.105469h-128c-4.417969 0-8-3.582031-8-8s3.582031-8 8-8h128c4.417969 0 8 3.582031 8 8s-3.582031 8-8 8zm0 0" fill="#333"/><path d="m136.050781 424.105469v32c0 13.253906-10.742187 24-24 24-13.253906 0-24-10.746094-24-24v-32c0-13.253907 10.746094-24 24-24 13.257813 0 24 10.746093 24 24zm0 0"/><path d="m296.050781 424.105469v32c0 13.253906-10.742187 24-24 24-13.253906 0-24-10.746094-24-24v-32c0-13.253907 10.746094-24 24-24 13.257813 0 24 10.746093 24 24zm0 0"/><path d="m224.050781 408.105469v48c0 4.417969-3.582031 8-8 8h-48c-4.417969 0-8-3.582031-8-8v-48zm0 0" fill="#002f2f"/><path d="m381.707031 378.449219-21.65625-21.65625v-52.6875c0-2.121094-.84375-4.15625-2.34375-5.65625l-40-40-11.3125 11.3125 37.65625 37.65625v49.375l-21.65625 21.65625c-1.5 1.5-2.339843 3.535156-2.34375 5.65625v16c0 4.417969 3.582031 8 8 8s8-3.582031 8-8v-12.6875l16-16 16 16v12.6875c0 4.417969 3.582031 8 8 8s8-3.582031 8-8v-16c0-2.121094-.84375-4.15625-2.34375-5.65625zm0 0" fill="#333"/><path d="m40.050781 356.792969v-49.375l37.65625-37.65625-11.3125-11.3125-40 40c-1.5 1.5-2.339843 3.535156-2.34375 5.65625v52.6875l-21.65625 21.65625c-1.5 1.5-2.3398435 3.535156-2.3437498 5.65625v16c0 4.417969 3.5820308 8 7.9999998 8s8-3.582031 8-8v-12.6875l16-16 16 16v12.6875c0 4.417969 3.582031 8 8 8s8-3.582031 8-8v-16c0-2.121094-.84375-4.15625-2.34375-5.65625zm0 0" fill="#333"/><g fill="#b3b3b3"><path d="m96.050781 232.105469v64h-8c-13.238281-.039063-23.957031-10.761719-24-24v-16c.042969-13.238281 10.761719-23.960938 24-24zm0 0"/><path d="m320.050781 256.105469v16c-.039062 13.238281-10.761719 23.960937-24 24h-8v-64h8c13.238281.039062 23.960938 10.761719 24 24zm0 0"/><path d="m368.050781 304.105469c0 8.835937-7.160156 16-16 16-8.835937 0-16-7.164063-16-16 0-8.835938 7.164063-16 16-16 8.839844 0 16 7.164062 16 16zm0 0"/><path d="m48.050781 304.105469c0 8.835937-7.160156 16-16 16-8.835937 0-16-7.164063-16-16 0-8.835938 7.164063-16 16-16 8.839844 0 16 7.164062 16 16zm0 0"/></g><path d="m288.050781 232.105469v120c-.003906 1.765625-.59375 3.484375-1.679687 4.878906-.304688.410156-.652344.785156-1.039063 1.121094-.238281.238281-.558593.398437-.800781.640625-1.316406.898437-2.882812 1.375-4.480469 1.359375h-176c-1.597656.015625-3.160156-.460938-4.476562-1.359375-.242188-.242188-.5625-.402344-.800781-.640625-.386719-.335938-.738282-.710938-1.042969-1.121094-1.082031-1.394531-1.671875-3.113281-1.679688-4.878906v-120c0-4.417969 3.582031-8 8-8h176c4.417969 0 8 3.582031 8 8zm0 0" fill="#3498db"/><path d="m192.050781 264.105469c-17.671875 0-32 14.324219-32 32 0 17.671875 14.328125 32 32 32 17.675781 0 32-14.328125 32-32 0-17.675781-14.324219-32-32-32zm0 48c-8.835937 0-16-7.164063-16-16 0-8.835938 7.164063-16 16-16 8.839844 0 16 7.164062 16 16-.023437 8.824219-7.171875 15.972656-16 16zm0 0" fill="#b3b3b3"/><path d="m208.050781 296.105469c0 8.835937-7.160156 16-16 16-8.835937 0-16-7.164063-16-16 0-8.835938 7.164063-16 16-16 8.839844 0 16 7.164062 16 16zm0 0" fill="#ffe184"/><path d="m164.050781 152.105469h56c6.628907 0 12 5.371093 12 12 0 6.625-5.371093 12-12 12h-56c-6.625 0-12-5.375-12-12 0-6.628907 5.375-12 12-12zm0 0" fill="#333"/></svg>